<?xml version="1.0" standalone="no"?>
<!DOCTYPE svg PUBLIC "-//W3C//DTD SVG 20010904//EN"
 "http://www.w3.org/TR/2001/REC-SVG-20010904/DTD/svg10.dtd">
<svg version="1.0" xmlns="http://www.w3.org/2000/svg"
 width="1152.000000pt" height="1152.000000pt" viewBox="0 0 1152.000000 1152.000000"
 preserveAspectRatio="xMidYMid meet">
<metadata>
Created by potrace 1.11, written by Peter Selinger 2001-2013
</metadata>
<g transform="translate(0.000000,1152.000000) scale(0.100000,-0.100000)"
fill="#000000" stroke="none">
<path d="M5681 8910 c-48 -96 -45 -94 -146 -106 -105 -12 -105 -11 -26 -89
l71 -70 -16 -93 c-9 -51 -14 -95 -11 -98 3 -3 42 15 88 39 l83 45 89 -45 c49
-24 90 -43 92 -41 2 2 -5 46 -15 98 l-18 94 75 72 75 72 -89 12 c-48 6 -95 15
-103 19 -8 5 -34 45 -56 90 -23 45 -43 84 -46 86 -2 2 -23 -36 -47 -85z"/>
<path d="M4539 8510 c-18 -36 -39 -77 -45 -91 -11 -24 -20 -28 -101 -40 -48
-7 -91 -14 -95 -15 -5 -1 -11 -2 -14 -3 -3 0 27 -31 66 -68 l72 -68 -6 -45
c-12 -87 -17 -115 -21 -137 -6 -26 -6 -26 104 31 l74 38 89 -47 89 -47 -6 49
c-4 26 -8 55 -10 63 -23 81 -21 87 55 159 40 38 68 71 64 74 -5 3 -36 8 -69
12 -124 13 -120 10 -168 110 l-44 90 -34 -65z"/>
<path d="M6762 8462 l-43 -88 -91 -13 c-51 -6 -94 -14 -97 -17 -3 -2 26 -36
64 -74 l69 -70 -16 -92 c-9 -51 -14 -95 -12 -97 5 -6 153 70 160 81 3 5 48
-14 100 -41 52 -27 94 -45 94 -40 0 5 -7 50 -16 101 l-16 92 71 67 c38 38 67
71 62 73 -4 3 -25 8 -47 11 -21 3 -50 7 -64 10 -14 2 -36 4 -50 4 -22 1 -32
14 -70 91 -24 50 -47 90 -50 90 -3 0 -24 -40 -48 -88z"/>
<path d="M5569 7696 c-2 -2 -29 -7 -59 -10 -209 -25 -477 -124 -710 -262 -109
-65 -127 -79 -222 -171 l-58 -55 -27 34 c-16 18 -44 51 -64 73 -20 22 -52 66
-72 98 -39 60 -108 117 -255 207 l-77 48 -5 -41 c-6 -50 -4 -369 3 -482 2 -44
7 -141 11 -216 4 -75 8 -146 11 -157 2 -15 -11 -40 -44 -79 -223 -267 -284
-548 -171 -780 35 -71 108 -142 181 -175 57 -27 68 -54 44 -112 -22 -52 -12
-103 25 -138 17 -15 30 -33 31 -40 4 -81 82 -407 136 -573 20 -60 37 -128 39
-150 3 -41 6 -59 17 -85 4 -8 9 -28 11 -43 3 -16 10 -35 16 -42 7 -8 9 -19 5
-25 -3 -5 -2 -10 3 -10 12 0 43 -80 35 -93 -3 -6 -1 -7 5 -3 11 6 15 -5 11
-30 0 -4 3 -10 8 -13 14 -10 45 -71 36 -71 -4 0 -3 -4 3 -8 7 -4 24 -29 38
-56 14 -27 31 -55 37 -62 6 -8 8 -14 3 -14 -5 0 -4 -4 1 -8 11 -8 45 -59 45
-67 0 -3 9 -14 20 -25 12 -12 18 -26 14 -32 -4 -7 -3 -8 4 -4 8 5 12 -1 12
-14 0 -12 4 -19 8 -16 5 3 17 -9 27 -27 11 -18 23 -36 27 -42 5 -5 17 -21 28
-34 11 -13 17 -28 13 -34 -3 -6 -1 -7 5 -3 6 3 16 -3 23 -15 6 -12 25 -38 43
-57 17 -18 29 -35 27 -35 -4 -2 9 -17 87 -100 9 -11 16 -23 15 -28 -2 -5 3 -8
10 -6 6 1 11 -4 10 -10 -2 -7 2 -12 8 -10 6 1 16 -6 22 -16 14 -21 147 -157
147 -149 0 2 7 -1 15 -8 8 -7 12 -16 9 -21 -3 -5 -1 -8 4 -7 8 3 29 -14 94
-74 16 -16 34 -28 39 -28 5 0 14 -9 21 -20 7 -11 18 -20 25 -20 6 0 19 -10 27
-22 9 -12 16 -19 16 -15 0 5 16 -4 35 -19 19 -14 35 -30 35 -35 0 -12 114
-120 187 -176 104 -81 129 -86 201 -41 44 27 207 169 241 209 13 16 30 29 37
29 7 0 14 3 16 8 6 15 61 52 69 46 5 -3 9 2 9 10 0 9 4 16 10 16 6 0 19 8 30
18 10 9 31 27 44 40 14 12 28 22 31 22 3 0 22 18 42 40 20 21 41 36 46 33 6
-3 7 -1 4 4 -4 6 1 17 10 24 12 10 14 10 9 2 -17 -29 2 -10 38 37 21 27 43 47
49 43 5 -3 7 -2 4 4 -3 5 14 28 38 51 25 23 42 42 40 42 -6 0 4 12 65 78 16
17 26 32 22 32 -4 0 -2 4 3 8 6 4 28 33 50 65 22 32 45 62 53 66 8 4 13 10 12
12 -5 10 24 58 32 53 5 -3 8 -2 7 3 -4 13 23 63 33 63 5 0 7 4 4 9 -3 5 3 20
14 34 11 14 20 30 20 36 0 6 5 11 11 11 5 0 8 4 4 9 -3 5 1 15 8 23 7 7 14 16
15 21 1 4 15 37 32 73 16 36 30 70 30 75 0 5 4 9 10 9 5 0 9 3 8 8 -1 4 4 23
11 42 17 43 13 31 41 120 12 41 27 80 31 86 5 6 6 13 4 16 -3 3 -1 17 5 32 11
30 19 72 25 128 2 21 16 77 30 125 15 48 29 96 30 105 2 10 6 22 9 26 3 5 7
19 10 33 22 117 51 189 116 284 74 109 188 308 226 394 80 179 83 416 10 578
-20 43 -105 164 -136 193 -9 9 -116 145 -123 157 -4 6 -3 31 2 55 9 42 14 76
27 188 3 30 8 58 10 61 6 11 16 190 17 314 1 117 -1 144 -24 332 l-11 93 -37
-29 c-128 -102 -288 -268 -404 -419 -30 -38 -53 -60 -60 -55 -7 3 -43 32 -82
64 -87 71 -266 187 -410 266 -305 167 -380 192 -611 199 -82 2 -152 3 -155 0z"/>
<path d="M7878 6582 c-31 -3 -38 -7 -37 -25 1 -20 -5 -92 -17 -207 -2 -25 -6
-70 -8 -100 -3 -30 -7 -62 -11 -72 -4 -9 -8 -31 -10 -50 -2 -18 -4 -34 -5 -35
-2 -2 -3 -11 -4 -20 -1 -10 -6 -43 -11 -73 -5 -30 -9 -57 -10 -60 0 -3 -3 -10
-7 -15 -4 -6 -3 -17 3 -25 5 -8 9 -19 9 -25 0 -5 -5 -3 -10 5 -8 12 -10 11
-10 -7 0 -13 1 -24 2 -25 1 -2 -3 -12 -9 -23 -6 -11 -14 -42 -17 -69 -4 -27
-10 -54 -13 -59 -4 -6 -7 -22 -9 -36 -1 -14 -3 -26 -4 -26 -1 0 -3 -8 -5 -17
-2 -11 3 -18 13 -19 88 -4 192 -2 192 4 0 4 9 3 20 -3 14 -8 20 -8 20 0 0 6 5
8 11 4 15 -9 222 -9 237 0 7 4 12 4 12 -1 0 -10 93 -9 109 1 6 4 11 2 11 -4 0
-8 6 -8 20 0 11 6 20 7 20 3 0 -9 98 -9 106 0 3 3 19 1 35 -3 18 -5 29 -5 29
1 0 6 5 7 11 3 15 -9 272 -9 287 0 7 4 12 4 12 -1 0 -8 54 -8 128 0 17 2 32 1
32 -2 0 -8 116 -5 135 3 8 3 15 2 15 -2 0 -9 41 -8 56 1 5 3 16 2 23 -2 7 -5
30 -5 52 -1 21 4 39 5 39 1 0 -7 115 -5 135 3 8 3 15 2 15 -2 0 -9 41 -8 56 1
5 3 16 2 24 -3 7 -4 23 -4 36 0 12 5 25 6 28 3 8 -9 147 -9 153 0 2 4 9 5 14
1 17 -10 98 -10 91 0 -3 6 3 6 14 1 26 -11 84 -13 84 -3 0 5 8 5 18 1 16 -8
34 -9 92 -3 14 1 30 1 35 0 16 -3 298 -1 315 3 35 7 89 40 83 50 -3 5 -1 7 4
4 14 -9 65 32 57 45 -4 7 -2 8 5 4 13 -8 154 128 231 224 25 30 47 57 50 60
18 15 130 185 130 197 0 7 4 13 9 13 10 0 71 130 71 151 0 8 4 19 9 24 16 16
17 140 2 131 -5 -3 -8 2 -7 11 0 9 -13 26 -31 39 -36 24 -28 23 -450 27 -117
1 -213 -2 -213 -6 0 -4 -9 -3 -19 3 -11 5 -22 6 -25 2 -3 -5 -30 -5 -61 -2
-31 3 -58 4 -60 0 -2 -3 -30 -3 -62 0 -32 3 -102 3 -156 0 -55 -3 -101 -1
-104 3 -3 4 -10 3 -17 -2 -7 -6 -15 -8 -18 -5 -9 9 -438 10 -438 1 0 -4 -9 -3
-19 3 -11 5 -22 6 -25 2 -3 -5 -30 -5 -61 -2 -31 3 -58 4 -60 0 -2 -3 -30 -3
-62 0 -32 3 -102 3 -156 0 -55 -3 -101 -1 -104 3 -3 4 -10 3 -17 -2 -7 -6 -15
-8 -18 -5 -9 9 -438 10 -438 1 0 -4 -9 -3 -19 3 -11 5 -22 6 -25 2 -3 -5 -30
-5 -61 -2 -30 3 -58 4 -61 1 -2 -3 -26 -4 -52 -2 -82 4 -325 6 -364 3z m2848
-257 c-1 -8 -5 -17 -8 -21 -5 -4 -4 16 1 34 3 9 9 -1 7 -13z m-1285 -12 c13
-16 12 -17 -3 -4 -10 7 -18 15 -18 17 0 8 8 3 21 -13z m-116 -241 c-3 -3 -11
0 -18 7 -9 10 -8 11 6 5 10 -3 15 -9 12 -12z m-999 -67 c-1 -8 -5 -17 -8 -21
-5 -4 -4 16 1 34 3 9 9 -1 7 -13z m1054 -79 c0 -2 -8 -10 -17 -17 -16 -13 -17
-12 -4 4 13 16 21 21 21 13z m720 -240 c0 -2 -8 -10 -17 -17 -16 -13 -17 -12
-4 4 13 16 21 21 21 13z"/>
<path d="M464 6561 c-32 -15 -45 -27 -53 -54 -17 -50 -14 -110 8 -162 30 -71
47 -103 53 -99 4 3 5 -1 3 -8 -7 -17 84 -160 96 -152 5 3 7 -1 4 -8 -6 -15 39
-71 49 -61 4 4 4 0 0 -10 -4 -11 0 -19 10 -23 9 -3 16 -10 16 -15 0 -5 11 -22
24 -37 14 -15 33 -37 44 -49 10 -13 23 -19 27 -15 5 4 6 2 2 -4 -3 -5 9 -24
26 -42 18 -17 55 -54 82 -82 46 -46 76 -66 59 -38 -5 7 -3 8 5 4 7 -5 10 -11
7 -14 -9 -8 25 -42 35 -36 5 3 9 1 9 -5 0 -25 85 -54 162 -57 52 -1 76 2 71 9
-4 6 -1 7 8 1 20 -13 130 -13 122 -1 -4 6 -1 7 8 1 20 -13 83 -13 91 0 6 8 8
8 8 0 0 -7 17 -12 44 -11 27 0 43 5 39 10 -4 6 -1 7 8 1 21 -13 271 -13 288 0
11 8 13 8 8 0 -4 -7 2 -11 18 -11 16 0 22 4 18 11 -5 8 -3 8 8 0 18 -15 171
-14 181 0 5 8 8 8 8 0 0 -15 53 -15 62 0 6 8 8 8 8 0 0 -7 15 -12 35 -12 24 0
33 4 28 12 -5 8 -3 8 8 0 18 -15 71 -15 62 -1 -4 6 -1 7 8 1 21 -14 120 -14
112 0 -5 8 -3 8 8 0 18 -14 101 -15 92 -1 -4 6 -1 7 8 1 21 -13 100 -13 92 0
-5 8 -2 7 8 0 16 -13 78 -13 98 0 9 6 12 5 8 -1 -4 -6 16 -10 53 -10 36 0 57
4 53 10 -4 6 -1 7 8 1 21 -13 271 -13 288 0 11 8 13 8 8 0 -4 -7 2 -11 18 -11
16 0 22 4 18 11 -5 8 -3 8 8 0 18 -15 171 -14 181 0 5 8 8 8 8 0 0 -15 53 -15
62 0 6 8 8 8 8 0 0 -7 15 -12 35 -12 24 0 33 4 28 11 -5 9 -3 9 8 1 18 -15 71
-15 62 -1 -4 6 -1 7 8 1 21 -14 120 -14 112 0 -4 6 1 5 10 -3 9 -7 24 -11 32
-7 16 6 16 19 -7 126 -6 30 -12 60 -13 65 -1 6 -3 12 -4 15 -1 3 -4 25 -7 50
-2 25 -6 54 -8 65 -1 11 -6 56 -10 100 -4 44 -10 91 -12 105 -5 32 -18 215
-17 257 0 18 -4 30 -8 27 -4 -2 -4 9 1 25 4 16 6 32 2 35 -3 4 -4 31 -3 61 l2
54 -1558 0 c-1498 0 -1560 0 -1599 -18z m266 -157 c0 -8 -19 -13 -24 -6 -3 5
1 9 9 9 8 0 15 -2 15 -3z m166 -6 c3 -4 -1 -5 -10 -4 -8 1 -18 5 -22 8 -3 4 1
5 10 4 8 -1 18 -5 22 -8z m1114 6 c0 -8 -19 -13 -24 -6 -3 5 1 9 9 9 8 0 15
-2 15 -3z m166 -6 c3 -4 -1 -5 -10 -4 -8 1 -18 5 -22 8 -3 4 1 5 10 4 8 -1 18
-5 22 -8z m-805 -155 c13 -16 12 -17 -3 -4 -10 7 -18 15 -18 17 0 8 8 3 21
-13z m479 13 c0 -2 -8 -10 -17 -17 -16 -13 -17 -12 -4 4 13 16 21 21 21 13z
m1676 -411 c-1 -8 -5 -17 -8 -21 -5 -4 -4 16 1 34 3 9 9 -1 7 -13z m-1911 -85
c3 -6 -1 -7 -9 -4 -18 7 -21 14 -7 14 6 0 13 -4 16 -10z"/>
<path d="M1399 5460 c-219 -4 -280 -8 -293 -19 -21 -17 -43 -61 -40 -78 1 -7
2 -27 3 -44 1 -20 5 -28 13 -23 7 4 8 3 4 -5 -9 -14 12 -81 25 -81 6 0 8 -4 5
-9 -6 -10 16 -61 27 -61 4 0 7 -5 7 -10 0 -12 41 -73 53 -78 4 -2 7 -9 7 -16
0 -7 13 -27 30 -44 16 -18 30 -35 30 -38 0 -12 53 -69 62 -66 5 1 7 -1 4 -6
-7 -12 68 -84 79 -75 4 5 5 2 1 -5 -4 -6 0 -19 8 -28 9 -8 16 -13 16 -11 0 2
20 -16 45 -40 24 -25 49 -42 55 -38 6 4 9 1 8 -5 -4 -15 103 -73 114 -62 4 4
33 5 64 2 30 -3 57 -2 60 2 3 5 9 6 14 3 10 -6 219 -10 224 -4 3 2 39 2 81 -1
42 -3 78 -3 80 0 2 3 38 3 80 0 42 -3 78 -3 80 0 2 3 38 3 80 0 42 -3 78 -3
80 0 2 3 38 3 80 0 42 -3 78 -3 80 0 2 3 38 3 80 0 42 -3 78 -3 80 0 2 3 38 3
80 0 42 -3 78 -3 80 0 2 3 38 3 80 0 42 -3 79 -3 81 -1 6 7 102 3 113 -4 5 -3
12 -1 16 4 3 6 13 7 22 4 14 -6 71 -7 91 -3 4 1 27 1 52 0 166 -5 320 -4 320
3 0 5 5 5 12 1 12 -8 86 -10 93 -3 2 3 32 2 65 -1 34 -3 63 -2 66 2 3 4 11 5
19 1 8 -3 15 0 15 6 0 6 -5 11 -12 11 -6 0 -9 3 -5 6 3 3 -3 23 -14 42 -10 20
-19 42 -19 49 0 7 -4 13 -10 13 -5 0 -7 6 -4 14 3 8 1 17 -5 21 -6 3 -11 15
-11 26 0 11 -3 18 -7 16 -5 -3 -9 6 -9 19 -1 13 -10 41 -19 60 -9 20 -19 44
-20 53 -2 9 -4 17 -5 19 -2 1 -4 7 -5 12 -1 6 -4 13 -5 18 -1 4 -2 10 -1 15 0
4 -4 7 -10 7 -6 0 -9 7 -6 15 4 8 2 17 -4 20 -5 4 -7 10 -4 15 3 5 0 14 -7 22
-7 7 -14 29 -16 48 -2 19 -7 39 -12 44 -5 5 -6 15 -2 24 4 11 1 14 -10 9 -13
-4 -15 0 -11 25 3 19 -1 36 -12 48 -11 12 -13 20 -5 25 8 5 8 11 -1 21 -6 8
-8 14 -3 14 4 0 3 5 -3 11 -6 6 -9 17 -7 24 3 7 1 16 -5 19 -6 4 -8 13 -5 20
3 8 0 17 -6 21 -9 5 -452 9 -470 4 -3 -1 -9 0 -15 1 -20 4 -85 4 -89 -1 -3 -3
-33 -2 -66 1 -34 3 -64 2 -66 -2 -3 -5 -9 -6 -14 -3 -8 5 -1014 8 -1030 4 -3
-1 -9 0 -15 1 -20 4 -85 4 -89 -1 -3 -3 -33 -2 -66 1 -34 3 -64 2 -66 -2 -3
-5 -10 -6 -15 -2 -15 9 -47 9 -350 4z m651 -334 c0 -3 -4 -8 -10 -11 -5 -3
-10 -1 -10 4 0 6 5 11 10 11 6 0 10 -2 10 -4z m1165 -326 c-3 -5 -12 -10 -18
-10 -7 0 -6 4 3 10 19 12 23 12 15 0z m390 1 c3 -5 2 -12 -3 -15 -5 -3 -9 1
-9 9 0 17 3 19 12 6z m-1199 -87 c1 -9 0 -13 -4 -10 -3 4 -7 14 -8 22 -1 9 0
13 4 10 3 -4 7 -14 8 -22z m640 0 c1 -9 0 -13 -4 -10 -3 4 -7 14 -8 22 -1 9 0
13 4 10 3 -4 7 -14 8 -22z m654 12 c0 -2 -8 -10 -17 -17 -16 -13 -17 -12 -4 4
13 16 21 21 21 13z m-2099 -59 c-10 -9 -11 -8 -5 6 3 10 9 15 12 12 3 -3 0
-11 -7 -18z"/>
<path d="M7651 5437 c-13 -41 -23 -86 -25 -114 0 -11 -5 -19 -10 -15 -5 3 -7
-5 -4 -16 4 -12 2 -22 -3 -22 -5 0 -9 -6 -9 -14 0 -8 -5 -27 -12 -43 -6 -15
-10 -36 -9 -45 1 -10 -2 -18 -7 -18 -5 0 -9 -6 -10 -12 -1 -13 -9 -48 -12 -58
-1 -3 -2 -9 -1 -14 1 -4 -3 -14 -8 -20 -6 -7 -12 -21 -14 -32 -2 -10 -9 -32
-16 -49 -7 -16 -10 -37 -8 -47 3 -9 2 -16 -2 -15 -3 1 -7 -1 -9 -5 -1 -4 -11
-28 -22 -53 -11 -25 -17 -45 -13 -45 3 0 0 -7 -7 -15 -7 -8 -9 -15 -5 -15 4 0
2 -6 -4 -13 -6 -8 -8 -17 -4 -20 3 -4 1 -7 -7 -7 -9 0 -11 -9 -6 -32 4 -21 3
-28 -3 -19 -10 15 -15 8 -25 -31 l-6 -27 1242 2 1243 2 63 43 c34 23 62 45 62
48 0 3 -5 2 -12 -2 -7 -4 -8 -3 -4 5 4 6 11 9 16 6 5 -3 17 6 28 20 11 14 23
25 26 25 11 0 71 73 68 83 -1 4 2 6 7 2 11 -6 58 52 53 67 -1 5 2 7 7 4 12 -8
42 34 34 47 -3 6 -1 7 5 3 5 -3 20 10 32 29 12 20 27 41 34 48 24 25 56 89 50
99 -4 7 -2 8 4 4 7 -4 12 -1 12 8 0 9 4 16 8 16 12 0 52 118 56 164 4 48 -18
94 -53 107 -36 15 -94 18 -108 6 -8 -6 -13 -6 -13 0 0 11 -90 10 -108 -1 -7
-4 -12 -3 -12 1 0 5 -9 9 -20 10 -11 1 -20 -3 -20 -8 0 -6 -6 -6 -17 0 -23 12
-35 12 -50 -1 -7 -6 -13 -6 -13 -1 0 5 -9 9 -20 10 -11 1 -20 -3 -20 -8 0 -6
-7 -6 -19 1 -14 7 -22 7 -26 0 -4 -6 -11 -7 -17 -4 -16 10 -378 12 -378 2 0
-5 -8 -5 -17 0 -21 10 -33 10 -50 -1 -7 -5 -13 -4 -13 1 0 10 -90 9 -108 -2
-7 -4 -12 -3 -12 2 0 12 -34 11 -42 -2 -5 -7 -8 -6 -8 3 0 11 -3 11 -15 1 -8
-7 -15 -8 -15 -3 0 5 -9 9 -20 10 -11 1 -20 -3 -20 -8 0 -6 -7 -6 -17 -1 -21
10 -33 10 -50 -1 -7 -5 -13 -4 -13 1 0 10 -90 9 -108 -2 -7 -4 -12 -3 -12 1 0
5 -9 9 -20 10 -11 1 -20 -3 -20 -8 0 -6 -6 -6 -17 0 -23 12 -35 12 -50 -1 -7
-6 -13 -6 -13 -1 0 5 -9 9 -20 10 -11 1 -20 -3 -20 -8 0 -7 -32 3 -46 15 0 1
-8 -5 -17 -13 -10 -7 -17 -9 -17 -4 0 5 -9 9 -20 10 -11 1 -20 -3 -20 -8 0 -6
-9 -5 -22 2 -24 13 -26 13 -45 -3 -8 -6 -13 -7 -13 -1 0 11 -90 10 -108 -1 -7
-4 -12 -3 -12 1 0 5 -9 9 -20 10 -11 1 -20 -3 -20 -8 0 -6 -7 -6 -17 -1 -21
10 -33 10 -50 -1 -7 -5 -13 -4 -13 0 0 5 -9 9 -20 10 -11 1 -20 -3 -20 -8 0
-6 -5 -7 -11 -3 -18 11 -83 11 -96 1 -8 -6 -13 -6 -13 0 0 5 -9 9 -20 10 -11
1 -20 -3 -20 -8 0 -9 -10 -6 -41 13 -3 1 -13 -3 -22 -11 -10 -7 -17 -9 -17 -4
0 5 -9 9 -20 10 -11 1 -20 -3 -20 -8 0 -6 -7 -6 -17 -1 -21 10 -33 10 -50 -1
-7 -5 -13 -4 -13 1 0 10 -90 9 -108 -2 -7 -4 -12 -3 -12 1 0 5 -9 9 -20 10
-11 1 -20 -3 -20 -8 0 -7 -32 3 -46 15 0 1 -8 -5 -17 -13 -10 -8 -17 -9 -17
-3 0 11 -38 10 -57 -1 -5 -3 -13 -3 -17 0 -17 17 -36 9 -45 -20z m1799 -221
c0 -2 -8 -10 -17 -17 -16 -13 -17 -12 -4 4 13 16 21 21 21 13z m-155 -96 c-3
-5 -12 -10 -18 -10 -7 0 -6 4 3 10 19 12 23 12 15 0z m115 6 c0 -2 -7 -7 -16
-10 -8 -3 -12 -2 -9 4 6 10 25 14 25 6z m-1715 -366 c-3 -5 -12 -10 -18 -10
-7 0 -6 4 3 10 19 12 23 12 15 0z m1640 -120 c3 -6 -1 -7 -9 -4 -18 7 -21 14
-7 14 6 0 13 -4 16 -10z"/>
<path d="M1695 4482 c-33 -6 -65 -48 -65 -84 0 -46 19 -108 32 -108 6 0 9 -3
5 -6 -8 -9 21 -64 34 -64 6 0 8 -4 5 -8 -5 -8 35 -74 61 -100 7 -7 13 -17 13
-21 0 -5 46 -56 103 -114 128 -132 253 -217 273 -186 3 5 10 6 16 2 16 -9 459
-10 465 0 2 4 9 4 15 0 16 -9 459 -10 465 0 2 4 9 4 15 0 16 -9 459 -10 465 0
2 4 9 4 15 0 16 -9 459 -10 465 0 2 4 9 4 15 0 7 -3 99 -7 205 -7 148 -1 193
2 193 12 0 6 -4 12 -9 12 -5 0 -12 11 -15 25 -4 14 -11 23 -16 20 -9 -5 -11 0
-10 20 1 3 -5 12 -12 20 -30 33 -38 45 -38 55 0 5 -5 10 -11 10 -5 0 -8 4 -4
9 3 6 -3 14 -12 20 -10 6 -14 11 -9 11 6 0 1 7 -10 16 -10 8 -12 12 -4 8 8 -4
5 4 -7 18 -13 13 -23 30 -23 36 0 7 -4 12 -8 12 -5 0 -14 16 -22 35 -8 19 -18
35 -24 35 -5 0 -6 3 -3 7 9 8 -13 34 -23 28 -5 -3 -6 4 -3 15 3 11 0 20 -6 20
-6 0 -10 6 -9 13 2 6 -3 11 -10 9 -8 -1 -10 2 -7 8 4 6 -1 21 -12 32 -10 12
-12 18 -5 14 11 -7 12 -4 3 13 -7 11 -16 21 -22 21 -6 0 -7 5 -4 10 3 6 1 10
-5 10 -6 0 -8 5 -5 10 3 6 1 10 -6 10 -7 0 -9 3 -6 6 9 10 -12 46 -23 39 -6
-3 -7 1 -4 9 3 9 -2 23 -12 33 -19 19 -84 26 -84 9 0 -8 -3 -8 -8 -1 -9 14
-95 13 -104 0 -5 -7 -8 -7 -8 0 0 6 -13 11 -30 11 -20 1 -27 -2 -23 -10 5 -8
3 -8 -8 0 -17 12 -68 12 -88 0 -9 -6 -12 -5 -8 0 8 13 -106 12 -115 -1 -5 -7
-8 -7 -8 1 0 5 -11 10 -25 10 -14 0 -25 -5 -25 -10 0 -8 -3 -8 -8 -1 -4 6 -29
11 -57 11 -27 0 -53 -5 -57 -11 -5 -7 -8 -7 -8 0 0 14 -153 14 -162 0 -5 -7
-8 -7 -8 0 0 14 -90 14 -90 1 0 -8 -3 -8 -8 -1 -9 14 -95 13 -104 0 -5 -6 -8
-6 -8 2 0 14 -40 13 -40 -2 0 -7 -3 -7 -8 0 -9 13 -102 14 -102 0 0 -5 -4 -4
-9 4 -7 12 -13 12 -24 3 -7 -7 -17 -9 -21 -5 -10 10 -136 11 -142 1 -3 -5 -11
-5 -17 -1 -20 12 -37 12 -37 0 0 -8 -3 -8 -8 -2 -10 14 -85 15 -94 1 -5 -7 -8
-7 -8 0 0 11 -95 12 -106 1 -4 -4 -14 -2 -21 5 -11 9 -17 9 -24 -3 -5 -8 -9
-9 -9 -3 0 13 -92 13 -102 -1 -5 -7 -8 -6 -8 0 0 6 -9 11 -20 12 -13 1 -18 -2
-14 -9 5 -7 2 -8 -7 -2 -20 12 -109 12 -109 -1 0 -7 -3 -7 -8 0 -11 15 -46 19
-36 4 5 -8 3 -9 -7 -3 -17 11 -209 12 -216 2 -2 -5 -10 -5 -16 -1 -13 8 -108
11 -142 5z m2405 -158 c0 -8 -19 -13 -24 -6 -3 5 1 9 9 9 8 0 15 -2 15 -3z
m-572 -209 c-3 -3 -9 2 -12 12 -6 14 -5 15 5 6 7 -7 10 -15 7 -18z m-1598 5
c0 -5 -5 -10 -11 -10 -5 0 -7 5 -4 10 3 6 8 10 11 10 2 0 4 -4 4 -10z m170
-34 c0 -2 -8 -10 -17 -17 -16 -13 -17 -12 -4 4 13 16 21 21 21 13z m1600 0 c0
-2 -8 -10 -17 -17 -16 -13 -17 -12 -4 4 13 16 21 21 21 13z m-409 -83 c13 -16
12 -17 -3 -4 -17 13 -22 21 -14 21 2 0 10 -8 17 -17z m-80 -80 c13 -16 12 -17
-3 -4 -17 13 -22 21 -14 21 2 0 10 -8 17 -17z m-1111 3 c0 -2 -8 -10 -17 -17
-16 -13 -17 -12 -4 4 13 16 21 21 21 13z"/>
<path d="M7324 4475 c-3 -8 -2 -19 2 -26 4 -7 3 -9 -3 -6 -10 6 -49 -68 -45
-85 1 -5 -2 -8 -7 -8 -9 0 -26 -48 -23 -62 1 -5 -3 -8 -9 -8 -5 0 -7 -4 -4
-10 3 -5 1 -10 -6 -10 -6 0 -9 -8 -6 -20 3 -11 0 -18 -6 -17 -6 1 -11 -2 -12
-8 -1 -16 -49 -109 -60 -117 -7 -5 -7 -8 0 -8 7 0 7 -3 0 -8 -13 -9 -70 -124
-67 -134 1 -5 -2 -8 -8 -8 -5 0 -17 -17 -25 -37 -9 -21 -19 -40 -23 -43 -4 -3
-15 -20 -25 -37 l-18 -33 378 -1 c208 0 393 -1 411 -2 17 -1 32 1 32 5 0 4 6
5 14 2 21 -8 226 -10 226 -2 0 4 6 5 14 2 21 -8 226 -10 226 -2 0 4 6 5 14 2
21 -8 226 -10 226 -2 0 4 6 5 14 2 21 -8 226 -10 226 -2 0 4 6 5 14 2 21 -8
226 -10 226 -2 0 4 6 5 14 2 21 -8 226 -10 226 -2 0 4 10 4 21 0 30 -12 142 5
155 23 6 8 14 12 17 8 4 -3 9 2 13 11 3 9 10 14 14 11 8 -5 190 165 190 178 0
5 -5 5 -12 1 -7 -4 -8 -3 -4 5 4 6 11 9 16 6 12 -7 82 83 74 96 -4 7 -3 9 4 5
6 -3 20 7 32 24 12 16 19 30 15 30 -3 0 3 10 15 22 19 20 24 33 21 51 0 4 3 7
8 7 24 0 53 121 39 161 -21 62 40 59 -1304 59 -1061 0 -1225 -2 -1230 -15z
m1483 -70 c0 -8 -4 -12 -9 -9 -5 3 -6 10 -3 15 9 13 12 11 12 -6z m-1117 -125
c0 -5 -5 -10 -11 -10 -5 0 -7 5 -4 10 3 6 8 10 11 10 2 0 4 -4 4 -10z m1911
-13 c-10 -9 -11 -8 -5 6 3 10 9 15 12 12 3 -3 0 -11 -7 -18z m-1430 -24 c13
-16 12 -17 -3 -4 -10 7 -18 15 -18 17 0 8 8 3 21 -13z m-170 -56 c-10 -9 -11
-8 -5 6 3 10 9 15 12 12 3 -3 0 -11 -7 -18z m85 -33 c1 -9 0 -13 -4 -10 -3 4
-7 14 -8 22 -1 9 0 13 4 10 3 -4 7 -14 8 -22z m974 12 c0 -2 -8 -10 -17 -17
-16 -13 -17 -12 -4 4 13 16 21 21 21 13z"/>
</g>
</svg>
